<svg xmlns="http://www.w3.org/2000/svg"  viewBox="0 0 100 100" width="100px" height="100px"><path fill="#fefdef" d="M30,81h40c6.075,0,11-4.925,11-11V30c0-6.075-4.925-11-11-11H30c-6.075,0-11,4.925-11,11v40 C19,76.075,23.925,81,30,81z"/><path fill="#1f212b" d="M70,82H30c-6.617,0-12-5.383-12-12V30c0-6.617,5.383-12,12-12h40c6.617,0,12,5.383,12,12v40 C82,76.617,76.617,82,70,82z M30,20c-5.514,0-10,4.486-10,10v40c0,5.514,4.486,10,10,10h40c5.514,0,10-4.486,10-10V30 c0-5.514-4.486-10-10-10H30z"/><path fill="#eddc67" d="M23.506,36.5H55.5v-13H31.502c-5.524,0-8.001,4.478-8,10.002L23.506,36.5z"/><path fill="#78cdd4" d="M76.494,36.5H59.5v-13h8.998c5.524,0,8.001,4.478,8,10.002L76.494,36.5z"/><path fill="#6b6aaf" d="M76.494,40.5H38.5v36h29.999c4.419,0,8.001-3.583,8-8.001L76.494,40.5z"/><path fill="#ef5390" d="M34.5,76.5v-36h-11v28c0,4.418,3.582,8,8,8H34.5z"/><circle cx="57" cy="59" r="11.5" fill="#fefdef"/><path fill="#1f212b" d="M57,71c-6.617,0-12-5.383-12-12c0-4.936,3.095-9.438,7.7-11.206 c0.257-0.098,0.547,0.029,0.646,0.288c0.099,0.258-0.03,0.547-0.288,0.646C48.836,50.348,46,54.476,46,59c0,6.065,4.935,11,11,11 s11-4.935,11-11c0-4.709-2.992-8.894-7.446-10.413c-0.262-0.09-0.401-0.374-0.313-0.635c0.09-0.262,0.378-0.398,0.635-0.313 C65.735,49.298,69,53.863,69,59C69,65.617,63.617,71,57,71z M55.785,48.064c-0.252,0-0.469-0.19-0.496-0.447 c-0.029-0.275,0.17-0.521,0.444-0.55c0.684-0.073,1.392-0.088,2.085-0.04c0.275,0.019,0.483,0.257,0.465,0.533 c-0.018,0.275-0.259,0.5-0.533,0.465c-0.634-0.041-1.285-0.029-1.911,0.036C55.82,48.063,55.803,48.064,55.785,48.064z"/><circle cx="57" cy="59" r="7.5" fill="#f37e98"/><path fill="#1f212b" d="M57,67c-3.006,0-5.731-1.66-7.111-4.333c-0.127-0.245-0.03-0.547,0.215-0.674 c0.242-0.126,0.547-0.031,0.674,0.215C51.985,64.547,54.369,66,57,66c3.859,0,7-3.141,7-7s-3.141-7-7-7 c-2.339,0.001-4.513,1.162-5.817,3.105c-0.154,0.23-0.467,0.291-0.693,0.137c-0.229-0.153-0.291-0.464-0.137-0.693 C51.843,52.327,54.327,51.001,57,51c4.411,0,8,3.589,8,8S61.411,67,57,67z M49.521,60.071c-0.258,0-0.478-0.199-0.497-0.461 C49.008,59.409,49,59.205,49,59c0-0.51,0.048-1.019,0.143-1.513c0.052-0.271,0.319-0.447,0.585-0.397 c0.271,0.052,0.449,0.314,0.397,0.585C50.042,58.107,50,58.554,50,59c0,0.18,0.006,0.356,0.02,0.532 c0.021,0.275-0.184,0.517-0.459,0.537C49.547,60.071,49.534,60.071,49.521,60.071z"/><path fill="#1f212b" d="M38.5,76.354c-0.276,0-0.5-0.224-0.5-0.5v-20c0-0.276,0.224-0.5,0.5-0.5s0.5,0.224,0.5,0.5v20 C39,76.13,38.776,76.354,38.5,76.354z M38.5,53.354c-0.276,0-0.5-0.224-0.5-0.5v-2c0-0.276,0.224-0.5,0.5-0.5s0.5,0.224,0.5,0.5v2 C39,53.13,38.776,53.354,38.5,53.354z M38.5,48.354c-0.276,0-0.5-0.224-0.5-0.5V40.5c0-0.276,0.224-0.5,0.5-0.5h32.646 c0.276,0,0.5,0.224,0.5,0.5s-0.224,0.5-0.5,0.5H39v6.854C39,48.13,38.776,48.354,38.5,48.354z"/><path fill="#1f212b" d="M34.5,76.354c-0.276,0-0.5-0.224-0.5-0.5V41H24c-0.276,0-0.5-0.224-0.5-0.5S23.724,40,24,40h10.5 c0.276,0,0.5,0.224,0.5,0.5v35.354C35,76.13,34.776,76.354,34.5,76.354z"/><g><path fill="#1f212b" d="M55.5,37h-7.646c-0.276,0-0.5-0.224-0.5-0.5s0.224-0.5,0.5-0.5H55V24.146c0-0.276,0.224-0.5,0.5-0.5 s0.5,0.224,0.5,0.5V36.5C56,36.776,55.776,37,55.5,37z M44.854,37H23.507c-0.276,0-0.5-0.224-0.5-0.5s0.224-0.5,0.5-0.5h21.347 c0.276,0,0.5,0.224,0.5,0.5S45.13,37,44.854,37z"/></g><g><path fill="#1f212b" d="M74.146,37H59.5c-0.276,0-0.5-0.224-0.5-0.5v-3.354c0-0.276,0.224-0.5,0.5-0.5s0.5,0.224,0.5,0.5V36 h14.146c0.276,0,0.5,0.224,0.5,0.5S74.423,37,74.146,37z M59.5,30.646c-0.276,0-0.5-0.224-0.5-0.5v-2c0-0.276,0.224-0.5,0.5-0.5 s0.5,0.224,0.5,0.5v2C60,30.423,59.776,30.646,59.5,30.646z M59.5,25.646c-0.276,0-0.5-0.224-0.5-0.5v-1c0-0.276,0.224-0.5,0.5-0.5 s0.5,0.224,0.5,0.5v1C60,25.423,59.776,25.646,59.5,25.646z"/></g><g><path fill="#1f212b" d="M68.5,77h-37c-4.687,0-8.5-3.813-8.5-8.5v-37c0-4.687,3.813-8.5,8.5-8.5h0.857 c0.276,0,0.5,0.224,0.5,0.5s-0.224,0.5-0.5,0.5H31.5c-4.136,0-7.5,3.364-7.5,7.5v37c0,4.136,3.364,7.5,7.5,7.5h37 c4.136,0,7.5-3.364,7.5-7.5v-37c0-0.227-0.01-0.449-0.029-0.669c-0.024-0.275,0.18-0.518,0.454-0.542 c0.283-0.024,0.519,0.18,0.542,0.454C76.988,30.992,77,31.244,77,31.5v37C77,73.187,73.187,77,68.5,77z M70.341,24.213 c-0.038,0-0.076-0.004-0.115-0.014C69.666,24.067,69.085,24,68.5,24H40.357c-0.276,0-0.5-0.224-0.5-0.5s0.224-0.5,0.5-0.5H68.5 c0.662,0,1.32,0.076,1.956,0.227c0.269,0.063,0.435,0.333,0.371,0.602C70.773,24.058,70.567,24.213,70.341,24.213z M37.357,24h-2 c-0.276,0-0.5-0.224-0.5-0.5s0.224-0.5,0.5-0.5h2c0.276,0,0.5,0.224,0.5,0.5S37.634,24,37.357,24z"/></g></svg>